<svg version="1.1" id="Layer_1" xmlns="http://www.w3.org/2000/svg" xmlns:xlink="http://www.w3.org/1999/xlink" x="0px" y="0px"
	 width="100%" viewBox="0 0 1581 1186" enable-background="new 0 0 1581 1186" xml:space="preserve">
<path fill="none" opacity="1.000000" stroke="#000000" stroke-linecap="round" stroke-linejoin="round" stroke-width="5.000000"
	d="
M1239.500000,679.000000 
	C1234.669922,674.138611 1227.878662,672.782715 1221.904785,671.416321 
	C1215.153809,669.872070 1209.424194,666.426697 1203.047607,664.353699 
	C1196.752075,662.307129 1190.307739,660.897156 1184.031128,658.902039 
	C1180.480957,657.773682 1177.856323,660.236389 1174.496704,660.173096 
	C1155.503540,659.815125 1136.500000,659.982178 1117.500122,660.031311 
	C1115.840210,660.035583 1114.067871,659.345703 1112.250000,660.998108 
	C1112.250000,700.500000 1112.250000,740.500000 1112.250000,780.625000 
	C1183.750732,780.625000 1255.000732,780.625000 1326.528442,780.625000 
	C1326.302124,740.331421 1327.006836,700.408813 1325.802124,660.618225 
	C1323.727417,659.664978 1321.838379,660.016724 1320.000000,660.014709 
	C1298.833374,659.991638 1277.666626,659.978943 1256.500122,660.028198 
	C1254.013428,660.033936 1251.652954,659.841736 1249.500000,658.500000 
"/>
<path fill="none" opacity="1.000000" stroke="#000000" stroke-linecap="round" stroke-linejoin="round" stroke-width="5.000000"
	d="
M605.000000,595.500000 
	C605.000000,517.166321 605.000000,438.832611 605.000000,360.000000 
	C711.500000,360.000000 817.500000,360.000000 923.750000,360.000000 
	C923.750000,375.500000 923.750000,390.500000 923.750000,406.000000 
	C817.667175,406.000000 711.833618,406.000000 606.000000,406.000000 
"/>
<path fill="none" opacity="1.000000" stroke="#000000" stroke-linecap="round" stroke-linejoin="round" stroke-width="5.000000"
	d="
M924.000000,770.000000 
	C924.000000,793.333313 924.000000,816.666687 924.000000,840.000000 
	C924.000000,862.000000 923.947266,884.000244 924.037476,905.999817 
	C924.059753,911.426758 923.426086,912.037476 918.000000,912.034973 
	C815.333313,911.987549 712.666687,912.000000 610.000000,912.000000 
	C608.499207,912.000000 606.998474,912.000000 605.000000,912.000000 
	C605.000000,824.833984 605.000000,738.166992 605.000000,651.500000 
"/>
<path fill="none" opacity="1.000000" stroke="#000000" stroke-linecap="round" stroke-linejoin="round" stroke-width="5.000000"
	d="
M1082.000000,358.000000 
	C1082.000000,472.500244 1082.000000,587.000488 1082.000000,702.000000 
	C1047.334961,702.000000 1013.167480,702.000000 979.000000,702.000000 
"/>
<path fill="none" opacity="1.000000" stroke="#000000" stroke-linecap="round" stroke-linejoin="round" stroke-width="5.000000"
	d="
M955.500000,189.000000 
	C891.832886,189.000000 828.165771,189.000000 764.000000,189.000000 
	C764.000000,246.082352 764.000000,302.666168 764.000000,359.250000 
"/>
<path fill="none" opacity="1.000000" stroke="#000000" stroke-linecap="round" stroke-linejoin="round" stroke-width="5.000000"
	d="
M922.500000,846.500000 
	C920.728210,847.343384 918.838623,846.986206 917.000000,846.986450 
	C813.333313,847.001648 709.666687,847.000000 606.000000,847.000000 
"/>
<path fill="none" opacity="1.000000" stroke="#000000" stroke-linecap="round" stroke-linejoin="round" stroke-width="5.000000"
	d="
M299.000000,528.000000 
	C299.000000,559.834229 299.000000,591.668396 299.000000,624.000000 
	C342.332031,624.000000 385.166016,624.000000 428.000000,624.000000 
"/>
<path fill="none" opacity="1.000000" stroke="#000000" stroke-linecap="round" stroke-linejoin="round" stroke-width="5.000000"
	d="
M539.000000,422.500000 
	C540.687439,421.037872 541.022400,419.136230 541.021179,417.000000 
	C540.993591,369.333344 540.999084,321.666656 541.007324,274.000000 
	C541.007446,273.121704 541.098022,272.247070 539.450928,271.000000 
	C523.836670,271.000000 507.168335,271.000000 490.500000,271.000000 
"/>
<path fill="none" opacity="1.000000" stroke="#000000" stroke-linecap="round" stroke-linejoin="round" stroke-width="5.000000"
	d="
M445.500000,314.500000 
	C445.666656,316.166656 446.265442,317.927032 445.927765,319.484344 
	C444.140686,327.725769 447.071869,334.010803 453.279755,339.063232 
	C460.326324,337.039917 465.128387,336.706238 469.103333,343.943237 
	C474.104279,353.048370 480.052643,361.611389 488.524811,367.966949 
	C492.471985,370.927979 496.741882,373.429291 501.999237,372.990784 
	C510.222046,372.304962 514.687805,367.603729 515.007568,359.500305 
	C515.525330,346.378510 514.125671,333.513977 510.000000,321.000000 
"/>
<path fill="none" opacity="1.000000" stroke="#000000" stroke-linecap="round" stroke-linejoin="round" stroke-width="5.000000"
	d="
M1137.000000,955.000000 
	C1152.501831,955.000000 1168.003540,955.000000 1183.625000,955.000000 
	C1183.625000,914.166687 1183.625000,873.833313 1183.625000,833.000000 
	C1181.834717,833.000000 1180.167358,833.000000 1178.500000,833.000000 
	C1128.500000,833.000000 1078.500000,833.001465 1028.500000,832.995667 
	C1025.966553,832.995422 1023.373230,832.722961 1021.500000,835.000000 
"/>
<path fill="none" opacity="1.000000" stroke="#000000" stroke-linecap="round" stroke-linejoin="round" stroke-width="5.000000"
	d="
M949.000000,581.000000 
	C888.000000,581.000000 827.000000,581.000000 766.000000,581.000000 
"/>
<path fill="none" opacity="1.000000" stroke="#000000" stroke-linecap="round" stroke-linejoin="round" stroke-width="5.000000"
	d="
M949.000000,534.000000 
	C888.000000,534.000000 827.000000,534.000000 766.000000,534.000000 
"/>
<path fill="none" opacity="1.000000" stroke="#000000" stroke-linecap="round" stroke-linejoin="round" stroke-width="5.000000"
	d="
M996.000000,861.500000 
	C994.521790,862.842041 993.977539,864.503418 993.979614,866.500000 
	C994.009399,895.166687 993.996643,923.833313 994.020935,952.500000 
	C994.021484,953.166748 994.333496,953.833313 994.625305,955.000000 
	C1022.497986,955.000000 1050.499023,955.000000 1078.500000,955.000000 
"/>
<path fill="none" opacity="1.000000" stroke="#000000" stroke-linecap="round" stroke-linejoin="round" stroke-width="5.000000"
	d="
M765.250000,639.000000 
	C765.166687,656.833313 765.091248,674.666748 764.996643,692.500000 
	C764.948853,701.513245 764.486755,701.021362 773.500000,701.009094 
	C794.500000,700.980469 815.500183,701.053650 836.499939,700.977539 
	C847.167053,700.938904 857.833313,700.666687 868.500000,700.500000 
"/>
<path fill="none" opacity="1.000000" stroke="#000000" stroke-linecap="round" stroke-linejoin="round" stroke-width="5.000000"
	d="
M1021.500000,861.000000 
	C1023.373230,863.277039 1025.966553,863.004578 1028.500000,863.004333 
	C1079.833374,862.998596 1131.166626,863.000000 1182.500000,863.000000 
"/>
<path fill="none" opacity="1.000000" stroke="#000000" stroke-linecap="round" stroke-linejoin="round" stroke-width="5.000000"
	d="
M1082.000000,241.000000 
	C1082.000000,223.831711 1082.000000,206.663437 1082.000000,189.000000 
	C1049.501709,189.000000 1017.500854,189.000000 985.500000,189.000000 
"/>
<path fill="none" opacity="1.000000" stroke="#000000" stroke-linecap="round" stroke-linejoin="round" stroke-width="5.000000"
	d="
M442.500000,273.000000 
	C441.600250,271.866211 440.352844,271.061157 438.999512,271.046509 
	C430.497223,270.954651 421.993469,271.000000 413.000000,271.000000 
	C413.000000,273.165314 413.000000,274.832672 413.000000,276.500000 
	C413.000000,311.166656 413.018433,345.833374 412.971069,380.499969 
	C412.966400,383.907257 413.330780,387.056396 416.000000,389.500000 
"/>
<path fill="none" opacity="1.000000" stroke="#000000" stroke-linecap="round" stroke-linejoin="round" stroke-width="5.000000"
	d="
M709.000000,455.000000 
	C692.831604,455.000000 676.663208,455.000000 660.000000,455.000000 
	C660.000000,480.997833 660.000000,506.498901 660.000000,532.000000 
"/>
<path fill="none" opacity="1.000000" stroke="#000000" stroke-linecap="round" stroke-linejoin="round" stroke-width="21.000000"
	d="
M1081.500000,271.500000 
	C1080.500000,271.166656 1079.394653,271.006531 1078.516602,270.472595 
	C1071.417236,266.155304 1064.077759,266.363586 1056.494019,268.982635 
	C1045.181030,272.889557 1045.170166,272.842865 1039.991577,284.496246 
	C1039.386841,285.857117 1038.782837,287.241547 1037.980225,288.487244 
	C1034.096313,294.515442 1034.229492,300.405151 1037.934204,306.539734 
	C1039.810181,309.645996 1041.201050,313.093445 1042.448364,316.518768 
	C1043.963623,320.679688 1046.791260,323.015411 1050.994141,324.024384 
	C1053.193970,324.552551 1055.435547,325.109039 1057.481445,326.040710 
	C1064.541138,329.255524 1071.338135,328.248322 1077.977173,324.953949 
	C1079.636963,324.130341 1081.133789,322.699890 1082.983154,324.023529 
	C1092.070801,330.527863 1101.272095,327.491608 1110.501587,324.504883 
	C1115.113647,323.012329 1118.557373,320.638306 1120.127441,315.539246 
	C1121.519409,311.018646 1124.116211,306.882263 1125.965698,302.485565 
	C1127.649048,298.483429 1127.400024,294.420593 1125.494385,290.502716 
	C1124.190430,287.821777 1122.400513,285.292267 1121.583130,282.475891 
	C1119.341187,274.752075 1113.888062,271.711517 1106.590332,269.233978 
	C1097.651367,266.199280 1089.807617,266.435394 1082.000000,271.500000 
"/>
<path fill="none" opacity="1.000000" stroke="#000000" stroke-linecap="round" stroke-linejoin="round" stroke-width="5.000000"
	d="
M541.000000,904.000000 
	C538.072388,896.792419 531.290344,894.032654 524.927551,892.260010 
	C515.578430,889.655273 505.966858,887.799927 496.460419,885.677307 
	C488.445312,883.887695 480.369965,882.377686 472.508148,879.973328 
	C468.016357,878.599548 466.610352,875.732971 468.518463,872.009460 
	C473.323883,862.632019 475.774689,852.424072 478.948669,842.483582 
	C482.466156,831.467346 485.391388,820.281860 488.110779,809.026733 
	C490.533234,799.000793 487.863495,789.466309 480.028961,783.462219 
	C477.815552,781.765930 475.110870,782.145630 473.015686,782.268250 
	C470.197449,782.433167 467.654846,781.822510 465.000793,781.493530 
	C457.385773,780.549805 452.150604,785.287598 447.067932,789.580444 
	C434.664642,800.056335 427.869415,814.320801 422.049774,829.019714 
	C414.632538,847.753540 409.190552,867.098267 406.096466,887.015015 
	C404.924744,894.557007 402.063232,901.712585 401.888031,909.497498 
	C401.713959,917.232178 404.548157,924.110596 409.259369,929.262817 
	C414.256805,934.728149 414.427063,940.677368 415.000000,947.000000 
"/>
<path fill="none" opacity="1.000000" stroke="#000000" stroke-linecap="round" stroke-linejoin="round" stroke-width="5.000000"
	d="
M300.500000,407.000000 
	C311.227814,412.134521 321.100311,418.783752 331.492371,424.513855 
	C334.043732,425.920685 336.385498,427.756561 339.028473,428.936218 
	C342.472107,430.473297 342.293030,432.953217 340.945068,435.470581 
	C338.126404,440.734375 335.000000,445.833344 332.000000,451.000000 
"/>
<path fill="none" opacity="1.000000" stroke="#000000" stroke-linecap="round" stroke-linejoin="round" stroke-width="5.000000"
	d="
M310.500031,488.000000 
	C307.833344,492.666687 305.269348,497.395996 302.470184,501.981781 
	C299.852570,506.270233 298.918976,506.492188 294.510529,503.981476 
	C282.313416,497.035004 270.214050,489.914978 257.952362,483.085541 
	C255.959930,481.975830 255.981354,480.672577 256.001038,479.000000 
	C256.165863,465.000000 256.251099,450.998199 256.558807,437.001282 
	C256.634064,433.578156 257.963470,430.945129 261.423157,428.871796 
	C273.984009,421.344238 286.461945,413.691864 299.500000,407.000000 
"/>
<path fill="none" opacity="1.000000" stroke="#000000" stroke-linecap="round" stroke-linejoin="round" stroke-width="5.000000"
	d="
M1243.750000,512.000000 
	C1240.422485,518.605469 1239.649658,525.766968 1238.968750,532.997070 
	C1236.992554,553.977905 1238.428833,575.001404 1238.043945,596.000793 
	C1237.978394,599.571655 1236.112427,602.170654 1233.944580,604.447266 
	C1228.253784,610.423767 1222.489014,616.350281 1216.003174,621.503967 
	C1214.232300,622.911133 1212.155518,623.540039 1210.000000,624.000000 
"/>
<path fill="none" opacity="1.000000" stroke="#000000" stroke-linecap="round" stroke-linejoin="round" stroke-width="5.000000"
	d="
M469.000000,783.000000 
	C468.555695,784.027832 468.558411,785.241760 467.506714,786.009216 
	C458.195160,792.803711 456.003540,803.076416 453.973145,813.494751 
	C451.434723,826.519958 448.779846,839.526733 446.191803,852.538147 
	C444.377228,861.660950 442.598267,870.821960 441.070496,880.011719 
	C440.837006,881.415955 440.834839,882.937256 441.428253,884.526794 
	C445.883698,896.461060 450.192047,901.267395 462.003937,901.929749 
	C478.821777,902.872803 495.662506,903.487061 512.501587,903.941406 
	C522.330017,904.206604 532.107361,905.184631 542.010681,904.736206 
	C549.471497,904.398315 554.096436,910.696716 556.826294,916.580566 
	C571.361877,947.909424 585.316345,979.507690 599.542236,1010.980896 
	C600.393738,1012.864807 600.239380,1015.354248 602.500000,1016.500000 
"/>
<path fill="none" opacity="1.000000" stroke="#000000" stroke-linecap="round" stroke-linejoin="round" stroke-width="5.000000"
	d="
M985.000000,189.000000 
	C985.000000,176.166672 985.013428,163.333298 984.988708,150.500015 
	C984.983765,147.952133 985.182190,145.675171 986.901184,143.424515 
	C988.678711,141.097092 989.875732,138.248199 990.954346,135.482208 
	C992.913086,130.459030 991.642700,126.363853 986.967896,124.065239 
	C978.243835,119.775497 969.515320,119.744499 960.977905,124.963860 
	C958.003540,126.782219 957.634399,129.709976 957.572388,132.501602 
	C957.250244,146.998154 957.125427,161.499680 957.014404,176.000107 
	C956.939148,185.832855 956.976685,195.666748 957.006470,205.499985 
	C957.036255,215.344650 970.083069,223.094498 978.421936,217.875305 
	C982.271729,215.465805 984.920044,211.478012 984.983276,206.499786 
	C985.055298,200.834030 985.000000,195.166672 985.000000,189.500000 
"/>
<path fill="none" opacity="1.000000" stroke="#000000" stroke-linecap="round" stroke-linejoin="round" stroke-width="22.000000"
	d="
M429.000000,949.250000 
	C460.454773,951.899841 491.982208,951.497314 523.500000,951.499939 
	C533.008789,951.500671 545.158386,959.462402 547.790710,968.560547 
	C549.028992,972.840332 552.143188,975.406494 554.086731,978.952454 
	C562.551514,994.396423 571.318298,1009.675232 580.019531,1024.988892 
	C581.074280,1026.845215 581.725037,1029.086670 584.000000,1030.000000 
"/>
<path fill="none" opacity="1.000000" stroke="#000000" stroke-linecap="round" stroke-linejoin="round" stroke-width="5.000000"
	d="
M1192.500000,449.750000 
	C1197.380859,453.443359 1203.054077,454.531036 1208.961548,455.695038 
	C1216.187744,457.118958 1216.610229,459.107910 1218.904541,465.351349 
	C1221.669800,472.876740 1217.743896,479.518341 1218.981934,486.503204 
	C1219.746948,490.819122 1220.169556,495.200958 1221.067383,499.485870 
	C1221.534790,501.716431 1223.569580,502.819153 1225.453247,504.070312 
	C1229.156860,506.530060 1233.650757,506.128174 1237.524536,507.947754 
	C1242.591064,510.327515 1248.276367,511.652374 1252.896973,514.658325 
	C1259.966309,519.257324 1261.970581,527.057739 1262.990967,535.001160 
	C1264.889771,549.782471 1266.220215,564.604187 1267.295410,579.478638 
	C1267.860840,587.299133 1266.853882,595.280029 1268.926880,603.019592 
	C1269.243286,604.200378 1269.457886,605.392944 1270.000000,606.500000 
"/>
<path fill="none" opacity="1.000000" stroke="#000000" stroke-linecap="round" stroke-linejoin="round" stroke-width="5.000000"
	d="
M1003.000000,493.000000 
	C971.833313,493.000000 940.666687,492.987610 909.500061,493.034515 
	C907.843323,493.037018 906.077454,492.441315 904.500000,493.500000 
"/>
<path fill="none" opacity="1.000000" stroke="#000000" stroke-linecap="round" stroke-linejoin="round" stroke-width="5.000000"
	d="
M1130.000000,589.500000 
	C1126.746338,595.606079 1126.192871,602.388916 1126.220093,608.999084 
	C1126.236328,612.971863 1124.849609,616.571960 1124.883057,620.500977 
	C1124.948730,628.218872 1127.530884,633.525391 1134.927490,637.148132 
	C1148.650146,643.869141 1162.917480,649.196777 1177.037720,654.906738 
	C1178.884644,655.653625 1180.161621,656.757507 1181.500000,658.000000 
"/>
<path fill="none" opacity="1.000000" stroke="#000000" stroke-linecap="round" stroke-linejoin="round" stroke-width="5.000000"
	d="
M578.500000,845.000000 
	C576.825562,843.792908 574.895996,843.998169 573.000000,843.998535 
	C557.666687,844.001221 542.332642,844.073059 527.000549,843.938049 
	C523.956055,843.911194 522.049377,844.768188 520.440735,847.464661 
	C514.422058,857.552979 508.160797,867.496399 502.004120,877.502563 
	C500.476440,879.985474 499.000000,882.500000 497.500000,885.000000 
"/>
<path fill="none" opacity="1.000000" stroke="#000000" stroke-linecap="round" stroke-linejoin="round" stroke-width="5.000000"
	d="
M1197.000000,455.000000 
	C1193.080078,464.020477 1193.887817,473.569183 1194.057983,482.998962 
	C1194.180908,489.813965 1196.477417,490.952271 1203.000000,488.000000 
	C1208.180786,494.063141 1207.084473,500.034943 1200.541138,504.066711 
	C1195.277466,507.310089 1189.446533,509.400726 1183.886230,511.728210 
	C1172.434570,516.521729 1168.533203,525.700256 1167.115234,536.515137 
	C1165.640625,547.763611 1164.643921,559.104370 1164.991455,570.500244 
	C1165.204956,577.498840 1165.333374,584.500000 1165.500000,591.500000 
"/>
<path fill="none" opacity="1.000000" stroke="#000000" stroke-linecap="round" stroke-linejoin="round" stroke-width="5.000000"
	d="
M516.500000,952.000000 
	C517.564636,962.773865 513.139221,972.662170 511.486359,982.997803 
	C510.391785,989.842651 509.328491,996.699402 507.956573,1003.491211 
	C506.446991,1010.964539 506.130524,1018.623901 504.102448,1026.028076 
	C503.410675,1028.553711 504.010345,1031.342041 503.105591,1034.035522 
	C502.271545,1036.518433 504.788300,1037.638550 506.518402,1037.848022 
	C508.332886,1038.067627 509.439575,1038.787476 510.500000,1040.000000 
"/>
<path fill="none" opacity="1.000000" stroke="#000000" stroke-linecap="round" stroke-linejoin="round" stroke-width="5.000000"
	d="
M1216.000000,637.500000 
	C1219.364624,637.979309 1222.196167,636.872498 1225.026001,635.040161 
	C1244.300171,622.560364 1263.544434,610.029968 1283.980347,599.462097 
	C1289.169922,596.778442 1293.897095,597.088318 1298.493774,600.508362 
	C1302.402100,603.416199 1305.476196,606.899902 1307.598145,611.454285 
	C1310.174683,616.984375 1308.691162,621.672119 1305.443115,625.956909 
	C1299.945312,633.209412 1291.992676,637.228210 1283.983887,640.965576 
	C1274.385376,645.444885 1264.659302,649.650513 1255.006348,654.014038 
	C1253.138184,654.858398 1251.307495,655.741577 1249.975342,657.481140 
	C1247.226929,661.070190 1243.729492,660.559143 1240.532593,658.450623 
	C1232.931396,653.437317 1225.500366,648.166199 1217.999390,643.000977 
	C1217.504517,642.660156 1216.667358,642.423645 1216.548828,641.986755 
	C1213.848389,632.035583 1204.865967,626.435974 1199.993286,618.003845 
	C1199.879395,617.806702 1199.666626,617.666626 1199.500000,617.500000 
"/>
<path fill="none" opacity="1.000000" stroke="#000000" stroke-linecap="round" stroke-linejoin="round" stroke-width="5.000000"
	d="
M361.250000,837.000000 
	C363.211243,833.344055 361.123260,831.007324 358.482300,829.023560 
	C354.770111,826.235229 345.786224,825.970520 341.515564,829.021790 
	C338.291687,831.325256 337.128387,835.726990 339.616302,838.909058 
	C342.323120,842.371094 342.579987,845.995422 342.536133,850.000366 
	C342.471558,855.895569 346.336304,860.075378 351.500000,860.000000 
	C358.152130,859.902954 362.146332,856.241272 361.945648,850.001770 
	C361.811584,845.832825 362.983093,841.534668 361.000000,837.500000 
"/>
<path fill="none" opacity="1.000000" stroke="#000000" stroke-linecap="round" stroke-linejoin="round" stroke-width="17.000000"
	d="
M1079.000000,955.500000 
	C1079.000000,957.833313 1078.769165,960.195251 1079.053467,962.493408 
	C1079.495239,966.063538 1077.197754,970.278015 1081.490723,973.014526 
	C1086.698486,976.334106 1091.944458,979.247131 1098.504272,977.516418 
	C1104.483887,975.938782 1110.500000,974.499939 1116.500000,972.999939 
"/>
<path fill="none" opacity="1.000000" stroke="#000000" stroke-linecap="round" stroke-linejoin="round" stroke-width="16.000000"
	d="
M1117.000000,937.500061 
	C1111.333374,936.000061 1105.695923,934.375671 1099.993042,933.029724 
	C1091.766968,931.088379 1085.140869,934.096558 1079.458862,939.960144 
	C1078.571289,940.876160 1079.066406,941.695679 1079.046875,942.501160 
	C1078.946045,946.665405 1079.000000,950.833313 1079.000000,955.000000 
"/>
<path fill="none" opacity="1.000000" stroke="#000000" stroke-linecap="round" stroke-linejoin="round" stroke-width="5.000000"
	d="
M548.500000,973.500000 
	C544.372498,979.737915 543.474426,987.166382 541.096191,994.033325 
	C536.112427,1008.423523 531.690613,1023.007812 526.986938,1037.495728 
	C525.349854,1042.538208 525.704651,1044.096680 518.495483,1042.015625 
	C516.361572,1041.399658 514.173828,1040.969971 511.830566,1040.412109 
	C508.339752,1044.219482 510.953094,1049.316406 509.150879,1053.563965 
	C508.229736,1055.735107 509.056061,1058.526489 508.125732,1061.046387 
	C507.664886,1062.294800 507.275787,1064.311890 509.000366,1065.499390 
	C516.164307,1070.432251 522.852661,1076.112427 531.000000,1079.500000 
"/>
<path fill="none" opacity="1.000000" stroke="#000000" stroke-linecap="round" stroke-linejoin="round" stroke-width="5.000000"
	d="
M580.500000,843.500000 
	C575.350220,850.172974 571.839600,857.837341 567.519714,865.011902 
	C559.617065,878.136841 551.833313,891.333313 544.000000,904.500000 
"/>
<path fill="none" opacity="1.000000" stroke="#000000" stroke-linecap="round" stroke-linejoin="round" stroke-width="5.000000"
	d="
M454.500000,339.500000 
	C455.340332,344.633728 455.968018,349.750000 456.101013,354.997437 
	C456.482117,370.037598 451.699219,383.416016 444.000000,396.000000 
"/>
<path fill="none" opacity="1.000000" stroke="#000000" stroke-linecap="round" stroke-linejoin="round" stroke-width="5.000000"
	d="
M1260.000000,681.500000 
	C1265.833374,680.685547 1271.645630,681.081604 1277.505737,681.390381 
	C1283.646606,681.714050 1289.832764,681.130127 1296.000366,681.022400 
	C1297.836060,680.990295 1299.727417,680.664978 1301.625000,681.536804 
	C1301.625000,706.418640 1301.625000,731.335571 1301.625000,756.500000 
	C1294.502075,756.500000 1287.750854,756.476929 1281.000122,756.513000 
	C1278.744751,756.525024 1276.966797,755.639648 1275.500000,754.000000 
"/>
<path fill="none" opacity="1.000000" stroke="#000000" stroke-linecap="round" stroke-linejoin="round" stroke-width="5.000000"
	d="
M500.000000,374.000000 
	C499.938629,383.680267 501.342072,393.289185 501.123566,403.002777 
	C500.967651,409.933685 500.400940,416.738312 499.000000,423.500000 
"/>
<path fill="none" opacity="1.000000" stroke="#000000" stroke-linecap="round" stroke-linejoin="round" stroke-width="18.000000"
	d="
M492.500000,599.000000 
	C492.855164,607.163025 496.424591,614.756958 496.561340,622.998962 
	C496.704346,631.617004 492.889526,639.515686 492.500000,648.000000 
"/>
<path fill="none" opacity="1.000000" stroke="#000000" stroke-linecap="round" stroke-linejoin="round" stroke-width="18.000000"
	d="
M585.500000,599.000000 
	C586.666626,605.166687 587.816101,611.336609 589.006104,617.498840 
	C589.779785,621.505066 589.779724,625.494873 589.006104,629.501160 
	C587.816162,635.663330 586.666687,641.833313 585.500000,648.000000 
"/>
<path fill="none" opacity="1.000000" stroke="#000000" stroke-linecap="round" stroke-linejoin="round" stroke-width="6.000000"
	d="
M1169.500000,681.500000 
	C1161.515869,680.570740 1153.499878,681.168213 1145.499756,681.013489 
	C1141.494873,680.936035 1137.487305,681.000000 1133.000000,681.000000 
	C1133.000000,688.492065 1133.000000,695.496033 1133.000000,702.500000 
	C1133.000000,709.500000 1133.000000,716.500000 1133.000000,723.500000 
	C1133.000000,733.000000 1133.097656,742.501526 1132.947632,751.999146 
	C1132.894165,755.384155 1133.890259,756.695679 1137.502441,756.569946 
	C1152.327881,756.053955 1167.176636,756.253174 1182.000122,756.243958 
	C1195.987915,756.235291 1210.001221,756.169922 1224.000732,756.466797 
	C1232.496826,756.646912 1241.000366,756.455933 1249.499756,756.525757 
	C1252.198730,756.547913 1254.666748,756.233521 1256.500000,754.000000 
"/>
<path fill="none" opacity="1.000000" stroke="#000000" stroke-linecap="round" stroke-linejoin="round" stroke-width="19.000000"
	d="
M460.000000,599.500000 
	C459.067871,608.228394 455.593018,616.478577 455.828918,625.504456 
	C455.984467,631.456055 458.631165,636.704529 459.108154,642.491089 
	C459.258911,644.319946 459.391693,646.161377 459.500000,648.000000 
"/>
<path fill="none" opacity="1.000000" stroke="#000000" stroke-linecap="round" stroke-linejoin="round" stroke-width="19.000000"
	d="
M553.000000,599.500000 
	C552.282166,607.767151 548.938721,615.543640 548.871948,623.998962 
	C548.819824,630.604370 551.876770,636.519775 552.043518,642.998901 
	C552.086609,644.673035 552.666687,646.333313 553.000000,648.000000 
"/>
<path fill="none" opacity="1.000000" stroke="#000000" stroke-linecap="round" stroke-linejoin="round" stroke-width="5.000000"
	d="
M1182.000000,551.000000 
	C1181.833374,565.833313 1181.666626,580.666687 1181.500000,595.500000 
"/>
<path fill="none" opacity="1.000000" stroke="#000000" stroke-linecap="round" stroke-linejoin="round" stroke-width="17.000000"
	d="
M496.500000,730.000000 
	C489.082794,729.414978 482.697693,731.237366 476.897308,736.384277 
	C471.011139,741.607300 469.955322,747.130127 471.760223,754.558289 
	C472.875000,759.146179 474.658386,762.081665 479.020752,762.887695 
	C481.756836,763.393188 483.509064,765.070251 485.470520,766.539368 
	C488.159698,768.553467 490.932556,770.279297 494.250000,771.000000 
"/>
<path fill="none" opacity="1.000000" stroke="#000000" stroke-linecap="round" stroke-linejoin="round" stroke-width="5.000000"
	d="
M258.000000,433.000000 
	C268.833344,439.000000 279.690063,444.958313 290.487610,451.022064 
	C294.398041,453.218140 298.166656,455.666656 302.000000,458.000000 
"/>
<path fill="none" opacity="1.000000" stroke="#000000" stroke-linecap="round" stroke-linejoin="round" stroke-width="5.000000"
	d="
M406.500000,893.500000 
	C414.833344,894.666626 423.182983,895.729858 431.493622,897.040527 
	C436.153839,897.775513 440.741547,898.821289 445.482513,899.212219 
	C446.996399,899.337097 447.761505,898.163940 449.000000,898.500000 
"/>
<path fill="none" opacity="1.000000" stroke="#000000" stroke-linecap="round" stroke-linejoin="round" stroke-width="8.000000"
	d="
M944.500000,707.500000 
	C940.577881,710.911194 936.934143,714.588074 933.387085,718.394775 
	C932.312683,719.547852 931.368042,720.564941 931.023132,722.005554 
	C929.470093,728.492859 928.000000,735.000000 926.500000,741.500000 
"/>
<path fill="none" opacity="1.000000" stroke="#000000" stroke-linecap="round" stroke-linejoin="round" stroke-width="8.000000"
	d="
M903.500000,707.500000 
	C903.462708,708.870605 904.781311,708.926941 905.518250,709.475525 
	C916.250366,717.465088 919.167358,729.332947 921.500000,741.500000 
"/>
<path fill="none" opacity="1.000000" stroke="#000000" stroke-linecap="round" stroke-linejoin="round" stroke-width="5.000000"
	d="
M490.000000,736.000000 
	C494.981567,742.808594 499.217834,749.889954 500.622253,758.480042 
	C501.181183,761.898499 500.920837,764.743408 498.453278,766.947693 
	C495.324524,769.742737 493.598541,772.767822 495.000000,777.000000 
"/>
<path fill="none" opacity="1.000000" stroke="#000000" stroke-linecap="round" stroke-linejoin="round" stroke-width="6.000000"
	d="
M480.250000,236.000000 
	C486.261200,248.059662 483.505280,259.810638 479.000000,271.500000 
"/>
<path fill="none" opacity="1.000000" stroke="#000000" stroke-linecap="round" stroke-linejoin="round" stroke-width="11.000000"
	d="
M921.500000,661.500000 
	C918.666687,672.500000 915.780823,683.487061 913.064331,694.515869 
	C912.711426,695.948608 912.807129,697.509766 913.925720,699.053833 
	C916.334290,702.378601 918.333313,706.000000 920.500000,709.500000 
"/>
<path fill="none" opacity="1.000000" stroke="#000000" stroke-linecap="round" stroke-linejoin="round" stroke-width="5.000000"
	d="
M522.500000,1044.000000 
	C522.333374,1048.166626 522.288452,1052.343018 521.958740,1056.496704 
	C521.725098,1059.440308 522.657166,1061.994751 524.549500,1063.952148 
	C529.190125,1068.752808 533.349609,1073.583740 531.567322,1081.016113 
	C531.396484,1081.728638 532.166626,1082.666626 532.500000,1083.500000 
"/>
<path fill="none" opacity="1.000000" stroke="#000000" stroke-linecap="round" stroke-linejoin="round" stroke-width="8.000000"
	d="
M926.499939,662.500000 
	C929.166626,673.333313 931.699280,684.203003 934.615723,694.968628 
	C935.183838,697.065552 934.232300,698.138672 933.471375,699.483826 
	C931.557861,702.866028 929.500000,706.166687 927.500000,709.500000 
"/>
<path fill="none" opacity="1.000000" stroke="#000000" stroke-linecap="round" stroke-linejoin="round" stroke-width="5.000000"
	d="
M1229.000000,506.500000 
	C1223.851318,517.360840 1211.663940,520.407654 1202.545532,512.944336 
	C1200.524048,511.289703 1198.344604,509.573456 1197.250000,507.000000 
"/>
<path fill="none" opacity="1.000000" stroke="#000000" stroke-linecap="round" stroke-linejoin="round" stroke-width="8.000000"
	d="
M1114.500000,297.500000 
	C1103.500000,297.500000 1092.500000,297.500000 1081.500000,297.500000 
"/>
<path fill="none" opacity="1.000000" stroke="#000000" stroke-linecap="round" stroke-linejoin="round" stroke-width="4.000000"
	d="
M1080.500000,297.000000 
	C1073.020874,298.106750 1065.498535,297.253357 1057.999390,297.481781 
	C1054.502686,297.588318 1051.000000,297.500000 1047.500000,297.500000 
"/>
<path fill="none" opacity="1.000000" stroke="#000000" stroke-linecap="round" stroke-linejoin="round" stroke-width="5.000000"
	d="
M597.000000,1021.500000 
	C599.042358,1025.403564 600.190491,1029.800659 603.485779,1033.014648 
	C604.635315,1034.135742 605.579895,1035.270630 607.504211,1035.034302 
	C614.280945,1034.202026 620.520386,1035.327271 625.500000,1040.500000 
"/>
<path fill="none" opacity="1.000000" stroke="#000000" stroke-linecap="round" stroke-linejoin="round" stroke-width="7.000000"
	d="
M1215.000000,670.500000 
	C1213.228882,673.214783 1210.078247,673.632568 1207.496582,674.993408 
	C1205.848511,675.862061 1203.364990,676.243164 1202.657104,677.583008 
	C1200.858521,680.987427 1197.758057,680.527283 1195.552490,679.833313 
	C1190.288086,678.177185 1186.812500,681.043884 1182.994385,683.491211 
	C1181.305298,684.573914 1180.903687,686.053833 1180.955566,688.001160 
	C1181.088501,692.997620 1180.982788,698.000061 1181.004761,703.000000 
	C1181.027344,708.133667 1179.824341,712.799133 1176.000000,716.500000 
"/>
<path fill="none" opacity="1.000000" stroke="#000000" stroke-linecap="round" stroke-linejoin="round" stroke-width="5.000000"
	d="
M1202.000000,679.500000 
	C1203.939331,680.985107 1205.897461,681.283569 1208.506958,681.184631 
	C1215.316528,680.926514 1222.166016,680.601196 1229.011963,681.396912 
	C1231.604858,681.698242 1234.419189,681.144775 1236.982910,680.438049 
	C1243.172363,678.731812 1247.151245,682.236328 1246.026733,688.504822 
	C1244.984253,694.315552 1244.058472,700.152893 1243.311646,706.007874 
	C1243.066650,707.928589 1244.125732,709.585205 1245.983887,710.695618 
	C1248.840088,709.708862 1249.961182,706.682922 1252.500000,705.500000 
"/>
<path fill="none" opacity="1.000000" stroke="#000000" stroke-linecap="round" stroke-linejoin="round" stroke-width="4.000000"
	d="
M892.000000,468.000000 
	C887.500000,476.833344 883.000000,485.666687 878.500000,494.500000 
"/>
<path fill="none" opacity="1.000000" stroke="#000000" stroke-linecap="round" stroke-linejoin="round" stroke-width="5.000000"
	d="
M1192.000000,678.500000 
	C1190.333740,674.399475 1186.497070,672.903503 1182.982422,670.894592 
	C1179.312378,673.806213 1174.888672,675.672302 1172.016968,679.512695 
	C1171.352051,680.401855 1170.408203,680.838379 1170.363770,682.496338 
	C1170.188721,689.022522 1169.132446,695.515930 1170.945190,702.015259 
	C1171.652832,704.552307 1169.840332,706.716248 1169.000000,709.000000 
"/>
<path fill="none" opacity="1.000000" stroke="#000000" stroke-linecap="round" stroke-linejoin="round" stroke-width="5.000000"
	d="
M562.000000,925.000000 
	C566.566406,918.493652 566.070374,912.670593 560.493591,908.007629 
	C557.415649,905.433899 554.038879,905.278137 550.500000,907.000000 
"/>
<path fill="none" opacity="1.000000" stroke="#000000" stroke-linecap="round" stroke-linejoin="round" stroke-width="5.000000"
	d="
M622.500000,1040.000000 
	C614.615173,1044.068237 605.800720,1045.231445 597.564514,1048.152710 
	C592.059082,1042.799927 589.774414,1035.320312 584.500000,1030.000000 
"/>
<path fill="none" opacity="1.000000" stroke="#000000" stroke-linecap="round" stroke-linejoin="round" stroke-width="1.000000"
	d="
M1081.500000,272.000000 
	C1081.500000,275.000000 1081.500000,278.000000 1081.500000,281.000000 
"/>
<path fill="none" opacity="1.000000" stroke="#000000" stroke-linecap="round" stroke-linejoin="round" stroke-width="1.000000"
	d="
M1081.500000,314.500000 
	C1081.500000,317.333344 1081.500000,320.166656 1081.500000,323.000000 
"/>
<path fill="none" opacity="1.000000" stroke="#000000" stroke-linecap="round" stroke-linejoin="round" stroke-width="5.000000"
	d="
M1278.500000,707.000000 
	C1277.407471,715.147766 1278.285400,723.335754 1278.000000,731.500000 
"/>
<path fill="none" opacity="1.000000" stroke="#000000" stroke-linecap="round" stroke-linejoin="round" stroke-width="5.000000"
	d="
M1249.500000,670.000000 
	C1254.558105,672.098633 1255.884888,677.580261 1259.394165,681.105286 
	C1259.977905,681.691589 1259.499756,683.832153 1258.935791,684.968079 
	C1257.426147,688.007996 1257.083862,691.393555 1255.893921,694.458801 
	C1253.978271,699.392944 1252.913086,704.031799 1253.783569,709.534241 
	C1254.735352,715.550354 1254.054688,721.834045 1253.968994,727.999573 
	C1253.940796,730.025818 1254.084473,731.832886 1256.000000,733.000000 
"/>
<path fill="none" opacity="1.000000" stroke="#000000" stroke-linecap="round" stroke-linejoin="round" stroke-width="5.000000"
	d="
M1230.000000,682.000000 
	C1230.000000,706.500000 1230.000000,731.000000 1230.000000,755.500000 
"/>
<path fill="none" opacity="1.000000" stroke="#000000" stroke-linecap="round" stroke-linejoin="round" stroke-width="5.000000"
	d="
M1180.000000,729.000000 
	C1181.915527,730.167114 1182.053589,731.974609 1182.031128,734.000366 
	C1181.951416,741.166138 1182.000000,748.333313 1182.000000,755.500000 
"/>
<path fill="none" opacity="1.000000" stroke="#000000" stroke-linecap="round" stroke-linejoin="round" stroke-width="5.000000"
	d="
M1206.000000,682.000000 
	C1206.000000,706.500000 1206.000000,731.000000 1206.000000,755.500000 
"/>
<path fill="none" opacity="1.000000" stroke="#000000" stroke-linecap="round" stroke-linejoin="round" stroke-width="5.000000"
	d="
M1300.500000,706.000000 
	C1284.833374,706.000000 1269.166626,706.000000 1253.500000,706.000000 
"/>
<path fill="none" opacity="1.000000" stroke="#000000" stroke-linecap="round" stroke-linejoin="round" stroke-width="5.000000"
	d="
M1160.000000,729.000000 
	C1158.084473,730.167114 1157.946411,731.974609 1157.968872,734.000366 
	C1158.048584,741.166138 1158.000000,748.333313 1158.000000,755.500000 
"/>
<path fill="none" opacity="1.000000" stroke="#000000" stroke-linecap="round" stroke-linejoin="round" stroke-width="5.000000"
	d="
M1158.000000,682.000000 
	C1158.000000,689.000000 1158.049561,696.000549 1157.968994,702.999634 
	C1157.945679,705.025452 1158.084473,706.832886 1160.000000,708.000000 
"/>
<path fill="none" opacity="1.000000" stroke="#000000" stroke-linecap="round" stroke-linejoin="round" stroke-width="5.000000"
	d="
M1242.500000,706.500000 
	C1240.896851,705.698730 1239.174438,706.013306 1237.500000,706.011658 
	C1218.833374,705.993164 1200.166626,706.000000 1181.500000,706.000000 
"/>
<path fill="none" opacity="1.000000" stroke="#000000" stroke-linecap="round" stroke-linejoin="round" stroke-width="5.000000"
	d="
M1278.500000,682.500000 
	C1277.367432,690.312805 1278.304443,698.169617 1278.000000,706.000000 
"/>
<path fill="none" opacity="1.000000" stroke="#000000" stroke-linecap="round" stroke-linejoin="round" stroke-width="5.000000"
	d="
M1157.500000,706.000000 
	C1149.666626,706.000000 1141.833374,706.000000 1134.000000,706.000000 
"/>
<path fill="none" opacity="1.000000" stroke="#000000" stroke-linecap="round" stroke-linejoin="round" stroke-width="5.000000"
	d="
M1157.500000,731.000000 
	C1149.666626,731.000000 1141.833374,731.000000 1134.000000,731.000000 
"/>
<path fill="none" opacity="1.000000" stroke="#000000" stroke-linecap="round" stroke-linejoin="round" stroke-width="5.000000"
	d="
M1253.500000,731.000000 
	C1229.833374,731.000000 1206.166626,731.000000 1182.500000,731.000000 
"/>
<path fill="none" opacity="1.000000" stroke="#000000" stroke-linecap="round" stroke-linejoin="round" stroke-width="5.000000"
	d="
M981.000000,144.000000 
	C978.312988,142.061111 975.489014,140.896790 971.999573,140.914459 
	C966.998901,140.939804 962.832336,138.119431 958.500000,136.000000 
"/>
<path fill="none" opacity="1.000000" stroke="#000000" stroke-linecap="round" stroke-linejoin="round" stroke-width="5.000000"
	d="
M1300.500000,731.000000 
	C1294.666626,731.000000 1288.833374,731.008118 1283.000000,730.996643 
	C1280.089844,730.990845 1277.325439,731.313660 1275.500000,734.000000 
"/>
<path fill="none" opacity="1.000000" stroke="#000000" stroke-linecap="round" stroke-linejoin="round" stroke-width="19.000000"
	d="
M512.000000,316.000000 
	C505.790710,311.119965 499.320312,311.888153 493.039825,315.567993 
	C489.191559,317.822754 485.829102,316.387512 482.530731,314.930450 
	C478.013977,312.935150 473.440033,311.724243 468.500000,312.000000 
"/>
<path fill="none" opacity="1.000000" stroke="#000000" stroke-linecap="round" stroke-linejoin="round" stroke-width="5.000000"
	d="
M499.000000,287.000000 
	C503.642029,292.309784 503.673401,299.114929 505.000000,305.500000 
"/>
<path fill="none" opacity="1.000000" stroke="#000000" stroke-linecap="round" stroke-linejoin="round" stroke-width="5.000000"
	d="
M841.500000,482.500000 
	C846.992554,487.592651 852.857422,492.219910 859.000000,496.500000 
"/>
<path fill="none" opacity="1.000000" stroke="#000000" stroke-linecap="round" stroke-linejoin="round" stroke-width="5.000000"
	d="
M859.500000,464.500000 
	C859.209717,468.626190 855.472961,469.812408 852.962769,471.956421 
	C849.443542,474.962280 845.183289,477.241180 842.177246,480.656067 
	C840.307495,482.779999 839.089294,481.568390 837.500000,481.500000 
"/>
<path fill="none" opacity="1.000000" stroke="#000000" stroke-linecap="round" stroke-linejoin="round" stroke-width="3.000000"
	d="
M488.500000,317.500000 
	C485.566376,322.825439 485.115936,328.589081 485.500000,334.500000 
"/>
<path fill="none" opacity="1.000000" stroke="#000000" stroke-linecap="round" stroke-linejoin="round" stroke-width="5.000000"
	d="
M360.500000,837.500000 
	C357.509003,839.000854 354.548035,840.406311 350.995087,840.048706 
	C348.243896,839.771912 346.153076,841.579346 344.000000,843.000000 
"/>
<path fill="none" opacity="1.000000" stroke="#000000" stroke-linecap="round" stroke-linejoin="round" stroke-width="5.000000"
	d="
M471.000000,766.000000 
	C469.093475,769.481140 466.605560,772.528564 464.017700,775.515320 
	C462.781036,776.942627 461.284180,778.308777 461.500000,780.500000 
"/>
<path fill="none" opacity="1.000000" stroke="#000000" stroke-linecap="round" stroke-linejoin="round" stroke-width="5.000000"
	d="
M447.500000,317.000000 
	C452.080261,318.768829 456.521210,320.971069 461.500000,321.500000 
"/>
<path fill="none" opacity="1.000000" stroke="#000000" stroke-linecap="round" stroke-linejoin="round" stroke-width="5.000000"
	d="
M601.000000,1016.500000 
	C596.374390,1021.838745 589.899902,1024.986328 585.000000,1030.000000 
"/>
<path fill="none" opacity="1.000000" stroke="#000000" stroke-linecap="round" stroke-linejoin="round" stroke-width="3.000000"
	d="
M912.000000,696.999939 
	C908.166626,698.166626 904.333313,699.333252 900.500000,700.499939 
"/>
<path fill="none" opacity="1.000000" stroke="#000000" stroke-linecap="round" stroke-linejoin="round" stroke-width="3.000000"
	d="
M935.500000,697.000000 
	C939.355286,697.308350 942.574951,699.947510 946.500000,700.000000 
"/>
<path fill="none" opacity="1.000000" stroke="#000000" stroke-linecap="round" stroke-linejoin="round" stroke-width="5.000000"
	d="
M485.999969,772.500000 
	C483.666626,775.833313 481.333313,779.166626 478.999969,782.500000 
"/>
<path fill="none" opacity="1.000000" stroke="#000000" stroke-linecap="round" stroke-linejoin="round" stroke-width="5.000000"
	d="
M641.499939,394.000031 
	C638.414368,390.914459 635.328796,387.828857 631.999695,384.499756 
	C628.671021,387.828674 625.585510,390.914368 622.500061,394.000061 
"/>
<path fill="none" opacity="1.000000" stroke="#000000" stroke-linecap="round" stroke-linejoin="round" stroke-width="5.000000"
	d="
M623.000061,375.499939 
	C625.918945,378.419128 628.837891,381.338318 632.000122,384.500824 
	C635.162231,381.338409 638.081116,378.419220 641.000061,375.500061 
"/>
<path fill="none" opacity="1.000000" stroke="#000000" stroke-linecap="round" stroke-linejoin="round" stroke-width="5.000000"
	d="
M1250.500000,666.000000 
	C1248.937256,671.328369 1244.475098,674.649475 1241.500000,679.000000 
"/>
<path fill="none" opacity="1.000000" stroke="#000000" stroke-linecap="round" stroke-linejoin="round" stroke-width="14.000000"
	d="
M1007.000000,837.000000 
	C1004.573120,838.470398 1000.686035,836.825806 999.438049,840.981384 
	C997.942993,845.959717 997.518677,851.035461 1000.150269,855.409607 
	C1002.546509,859.392639 1007.392212,858.949951 1011.499084,858.907837 
	C1013.404236,858.888306 1015.299377,857.880859 1017.333618,857.281555 
	C1022.314697,844.275085 1019.224976,835.378845 1007.500000,837.000000 
"/>
</svg>
