<?xml version="1.0" standalone="no"?>
<!DOCTYPE svg PUBLIC "-//W3C//DTD SVG 20010904//EN"
 "http://www.w3.org/TR/2001/REC-SVG-20010904/DTD/svg10.dtd">
<svg version="1.0" xmlns="http://www.w3.org/2000/svg"
 width="460.000000pt" height="460.000000pt" viewBox="0 0 460.000000 460.000000"
 preserveAspectRatio="xMidYMid meet">
<metadata>
Created by potrace 1.14, written by Peter Selinger 2001-2017
</metadata>
<g transform="translate(0.000000,460.000000) scale(0.100000,-0.100000)"
fill="#000000" stroke="none">
<path d="M0 2300 l0 -2300 2300 0 2300 0 0 2300 0 2300 -2300 0 -2300 0 0
-2300z m1731 1753 c-8 -15 -10 -15 -11 -2 0 17 10 32 18 25 2 -3 -1 -13 -7
-23z m-241 -128 c0 -6 -8 -11 -19 -12 -16 -1 -17 2 -7 22 10 22 25 16 26 -10z
m1019 -179 c-9 -8 -10 -7 -5 7 3 10 7 24 7 30 1 7 3 4 6 -7 3 -10 -1 -23 -8
-30z m-638 -49 c-1 -12 -15 -9 -19 4 -3 6 1 10 8 8 6 -3 11 -8 11 -12z m673
-3 c3 -8 2 -12 -4 -9 -5 3 -15 -5 -21 -19 -10 -21 -15 -24 -32 -14 -20 10 -20
11 6 25 15 7 27 18 27 23 0 16 17 12 24 -6z m-1274 -50 c0 -8 -5 -12 -10 -9
-6 4 -8 11 -5 16 9 14 15 11 15 -7z m-28 -19 c3 -13 1 -22 -3 -19 -9 5 -13 44
-5 44 2 0 6 -11 8 -25z m798 11 c0 -3 -4 -8 -10 -11 -5 -3 -10 -1 -10 4 0 6 5
11 10 11 6 0 10 -2 10 -4z m-120 -16 c0 -5 -2 -10 -4 -10 -3 0 -8 5 -11 10 -3
6 -1 10 4 10 6 0 11 -4 11 -10z m-90 -84 c0 -2 -8 -10 -17 -17 -16 -13 -17
-12 -4 4 13 16 21 21 21 13z m687 -112 c-3 -3 -12 -4 -19 -1 -8 3 -5 6 6 6 11
1 17 -2 13 -5z m-1310 -38 c-1 -1 -12 -10 -25 -21 l-23 -19 7 29 c10 45 16 50
30 30 8 -10 13 -19 11 -19z m1333 -170 c0 -3 -4 -8 -10 -11 -5 -3 -10 -1 -10
4 0 6 5 11 10 11 6 0 10 -2 10 -4z m516 -51 c4 -8 14 -15 24 -15 23 0 60 -33
60 -54 0 -13 -7 -10 -32 13 -32 30 -56 41 -43 21 3 -5 1 -10 -4 -10 -6 0 -11
7 -11 15 0 9 -7 18 -15 21 -8 4 -12 10 -9 15 8 14 24 11 30 -6z m-16 -35 c0
-5 -4 -10 -9 -10 -6 0 -13 5 -16 10 -3 6 1 10 9 10 9 0 16 -4 16 -10z m-1728
-72 c-8 -8 -9 -4 -5 13 4 13 8 18 11 10 2 -7 -1 -18 -6 -23z m1888 22 c0 -5
-2 -10 -4 -10 -3 0 -8 5 -11 10 -3 6 -1 10 4 10 6 0 11 -4 11 -10z m-1691 -42
c11 -15 10 -17 -8 -15 -20 1 -28 17 -14 30 3 4 7 6 7 5 1 -2 7 -11 15 -20z
m1028 -14 c-3 -3 -12 -4 -19 -1 -8 3 -5 6 6 6 11 1 17 -2 13 -5z m-102 -33
c-8 -13 -35 -15 -35 -2 0 5 8 11 18 13 21 5 26 2 17 -11z m-815 -27 c0 -23
-14 -32 -24 -16 -8 13 5 52 15 46 5 -3 9 -16 9 -30z m-269 -9 c22 -37 23 -45
5 -45 -16 0 -28 24 -20 44 3 7 -2 16 -10 19 -9 4 -16 3 -16 -1 0 -4 -8 -12
-18 -19 -17 -10 -18 -8 -14 13 7 36 50 29 73 -11z m-133 -15 c-1 -32 -12 -47
-22 -31 -5 8 12 61 20 61 1 0 2 -14 2 -30z m962 20 c0 -5 -8 -10 -17 -10 -15
0 -16 2 -3 10 19 12 20 12 20 0z m330 -40 c-24 -15 -31 -11 -18 10 9 13 16 16
23 9 7 -7 5 -13 -5 -19z m1540 -10 c0 -5 -4 -10 -10 -10 -5 0 -10 5 -10 10 0
6 5 10 10 10 6 0 10 -4 10 -10z m-1690 -14 c0 -3 -4 -8 -10 -11 -5 -3 -10 -1
-10 4 0 6 5 11 10 11 6 0 10 -2 10 -4z m-66 -37 c-8 -13 -24 -1 -24 18 0 13 3
13 15 3 8 -7 12 -16 9 -21z m143 25 c-3 -3 -12 -4 -19 -1 -8 3 -5 6 6 6 11 1
17 -2 13 -5z m98 -13 c-8 -14 -42 -19 -56 -9 -11 8 -10 9 3 4 10 -3 24 1 30 8
13 14 32 11 23 -3z m-1195 -1 c0 -5 -4 -10 -10 -10 -5 0 -10 5 -10 10 0 6 5
10 10 10 6 0 10 -4 10 -10z m1034 -9 c7 -11 -14 -20 -32 -13 -11 4 -11 6 0 13
17 11 26 11 32 0z m-1519 -11 c3 -5 1 -10 -4 -10 -6 0 -11 5 -11 10 0 6 2 10
4 10 3 0 8 -4 11 -10z m3192 -12 c-3 -8 -6 -5 -6 6 -1 11 2 17 5 13 3 -3 4
-12 1 -19z m-2717 8 c0 -3 -4 -8 -10 -11 -5 -3 -10 -1 -10 4 0 6 5 11 10 11 6
0 10 -2 10 -4z m940 -6 c0 -5 -4 -10 -9 -10 -6 0 -13 5 -16 10 -3 6 1 10 9 10
9 0 16 -4 16 -10z m220 0 c0 -5 -10 -10 -22 -10 -19 0 -20 2 -8 10 19 13 30
13 30 0z m1750 0 c0 -5 -5 -10 -11 -10 -5 0 -7 5 -4 10 3 6 8 10 11 10 2 0 4
-4 4 -10z m-2973 -57 c22 -23 22 -24 -19 -27 -7 -1 -12 7 -10 16 1 9 -2 19 -8
23 -5 3 -10 16 -9 28 0 21 1 21 12 3 7 -11 22 -30 34 -43z m52 40 c12 3 21 1
21 -5 0 -5 5 -6 10 -3 17 10 11 -22 -6 -36 -15 -12 -16 -11 -10 9 9 26 -14 31
-34 7 -16 -20 -30 -2 -22 27 3 14 7 16 12 7 5 -6 17 -9 29 -6z m837 3 c3 -8
12 -17 20 -20 8 -3 12 -2 9 4 -7 11 32 33 45 25 6 -3 10 -13 10 -21 0 -8 -5
-12 -10 -9 -7 4 -9 -3 -6 -19 3 -15 1 -24 -4 -21 -4 3 -10 0 -12 -6 -3 -8 -9
-6 -20 4 -11 12 -18 13 -27 4 -8 -8 -11 -5 -12 14 -1 16 -3 19 -6 7 -2 -10
-10 -18 -17 -18 -8 0 -13 -11 -13 -25 0 -28 -49 -80 -59 -64 -3 5 -1 15 4 22
24 31 20 54 -13 70 -31 15 -32 15 -50 -19 -17 -33 -35 -45 -35 -24 0 6 5 10
11 10 5 0 8 4 5 9 -3 5 1 12 10 15 8 3 12 11 9 16 -9 14 13 40 34 39 11 0 9
-3 -6 -9 -28 -12 -30 -20 -3 -13 11 3 20 0 20 -6 0 -6 9 -3 20 6 11 10 20 23
20 30 0 18 69 17 76 -1z m378 1 c17 -12 16 -14 -7 -24 -21 -10 -26 -9 -31 3
-12 31 9 42 38 21z m-234 -11 c0 -11 -19 -15 -25 -6 -3 5 1 10 9 10 9 0 16 -2
16 -4z m43 -21 c-5 -13 -23 -22 -23 -11 0 15 14 35 21 31 4 -3 6 -12 2 -20z
m-376 9 c-3 -3 -12 -4 -19 -1 -8 3 -5 6 6 6 11 1 17 -2 13 -5z m298 -4 c3 -5
1 -10 -4 -10 -6 0 -11 5 -11 10 0 6 2 10 4 10 3 0 8 -4 11 -10z m14 -42 c6
-13 10 -16 7 -7 -3 11 4 15 30 16 19 1 34 -3 34 -9 0 -5 -4 -7 -9 -4 -5 3 -11
-1 -15 -9 -3 -8 -1 -17 4 -20 6 -4 10 -1 10 4 0 6 9 11 21 11 12 0 17 -4 14
-11 -4 -6 -1 -10 6 -8 25 3 39 -1 39 -11 0 -6 -6 -10 -12 -9 -33 4 -68 -2 -68
-12 0 -5 5 -7 10 -4 14 9 52 -4 45 -15 -3 -5 9 -5 27 1 18 5 34 9 35 9 1 0 0
-7 -3 -15 -6 -15 -1 -17 54 -19 29 -1 52 -17 53 -38 0 -10 2 -10 6 0 2 6 9 12
15 12 6 0 8 -6 5 -14 -4 -9 0 -12 11 -10 22 6 47 -43 32 -61 -12 -14 2 -29 38
-39 12 -4 27 -16 33 -27 5 -11 15 -17 21 -13 7 5 9 -2 6 -18 -3 -18 2 -31 17
-44 12 -11 20 -25 17 -32 -5 -13 17 -73 30 -82 13 -10 14 -53 0 -56 -7 -1 -8
0 -2 3 16 8 12 23 -5 17 -11 -5 -15 1 -16 22 0 25 -2 26 -8 9 -5 -11 -3 -27 2
-36 8 -13 6 -21 -6 -34 -21 -20 -22 -45 -2 -45 8 0 15 5 15 11 0 5 4 8 9 5 11
-7 5 -60 -8 -64 -6 -2 -11 -12 -11 -22 0 -22 -16 -35 -25 -20 -3 5 -11 10 -16
10 -6 0 -3 -8 7 -17 15 -16 15 -17 -2 -24 -11 -4 -14 -8 -8 -8 12 -1 12 -36
-1 -90 -5 -25 -10 -30 -16 -20 -7 12 -9 11 -9 -1 0 -18 -37 -44 -42 -30 -2 6
-9 6 -18 0 -12 -8 -13 -12 -2 -19 10 -6 6 -11 -16 -20 -16 -7 -35 -23 -42 -37
-8 -13 -19 -25 -27 -25 -26 -3 -30 -4 -48 -23 -12 -12 -21 -14 -23 -7 -2 6
-10 11 -18 11 -8 0 -14 5 -14 10 0 6 5 10 11 10 6 0 24 15 40 33 16 17 29 26
29 20 0 -24 18 -13 25 14 4 19 9 23 14 14 6 -9 10 -2 14 20 6 40 0 51 -14 26
-6 -9 -17 -17 -24 -17 -8 0 -15 -7 -15 -15 0 -8 -8 -15 -17 -14 -10 0 -13 3
-7 5 6 3 9 16 6 29 -3 18 0 25 11 25 9 0 21 9 27 19 9 18 7 20 -24 18 -19 -2
-38 -6 -42 -10 -13 -13 -31 -7 -40 13 -9 19 -9 19 -51 -2 -24 -12 -39 -26 -36
-32 3 -6 3 -8 -2 -4 -4 4 -14 3 -21 -3 -8 -6 -22 -8 -31 -4 -10 4 -30 7 -45 6
-14 -1 -29 2 -33 8 -13 22 -24 10 -13 -14 7 -15 17 -24 25 -21 17 7 17 -2 -1
-20 -17 -17 -36 -18 -36 -3 0 5 -4 7 -10 4 -5 -3 -10 -1 -10 4 0 6 7 11 15 11
8 0 15 5 15 10 0 6 -9 10 -21 10 -11 0 -18 4 -15 9 5 7 -44 7 -64 1 -3 -1 -15
-1 -27 0 -13 1 -23 -3 -23 -9 0 -11 20 -15 49 -12 7 2 10 -2 6 -8 -3 -6 0 -9
8 -5 8 3 20 -3 28 -12 12 -15 12 -17 -1 -12 -8 3 -29 -1 -47 -9 -40 -16 -46
-16 -37 -2 5 8 -2 10 -21 7 -35 -7 -69 20 -59 47 6 15 4 16 -14 6 -15 -8 -22
-8 -22 -1 0 5 -7 10 -16 10 -14 0 -14 3 -4 15 10 12 10 15 0 15 -7 0 -27 13
-45 29 -30 26 -32 31 -20 48 8 10 15 14 15 8 0 -5 5 -3 10 5 9 13 11 13 20 0
8 -12 10 -11 10 6 0 27 -22 46 -44 38 -20 -8 -89 63 -81 84 2 6 -1 12 -8 13
-9 0 -9 2 1 6 6 2 12 12 12 21 0 13 2 14 8 4 5 -7 16 -10 25 -7 11 5 15 1 13
-12 -2 -12 7 -22 27 -30 40 -17 43 -16 22 7 -10 11 -22 17 -26 14 -5 -3 -9 5
-8 18 0 13 3 17 6 11 2 -7 9 -13 14 -13 4 0 6 7 3 15 -8 20 10 19 30 -1 9 -8
17 -14 17 -12 1 2 3 15 5 30 3 27 -13 34 -28 13 -5 -6 -8 -5 -8 3 0 6 -8 12
-19 12 -10 0 -22 10 -26 23 -10 28 -13 147 -4 147 8 0 39 -63 39 -80 0 -6 4
-8 10 -5 6 4 4 17 -5 35 -8 16 -16 37 -18 47 -4 26 -17 44 -27 38 -5 -3 -12 0
-16 6 -5 8 -3 9 6 4 17 -11 3 36 -16 51 -11 9 -12 18 -5 37 7 17 7 28 1 32
-13 8 -13 45 -1 45 5 0 7 -10 4 -22 -4 -19 -3 -20 6 -8 10 14 15 7 12 -13 -2
-9 24 -37 34 -37 3 0 3 17 0 38 -5 27 -4 33 4 22 9 -12 11 -12 11 -1 0 14 37
51 52 51 4 0 8 -5 8 -12 0 -6 -3 -8 -6 -5 -11 10 -44 -39 -44 -65 0 -18 2 -20
10 -8 8 13 10 12 10 -4 0 -11 -6 -27 -14 -35 -20 -23 -28 -68 -15 -77 7 -4 17
0 24 9 14 19 35 23 35 6 0 -5 5 -7 10 -4 6 3 10 15 10 26 0 24 20 26 21 2 0
-11 7 -3 16 17 14 33 16 34 29 15 8 -10 14 -14 14 -8 0 5 -11 22 -25 37 -27
30 -32 46 -12 46 9 0 9 2 -1 9 -11 7 -10 9 3 14 13 6 14 11 4 28 -6 12 -7 19
-1 15 6 -3 12 0 15 6 3 9 10 6 21 -9 18 -24 36 -25 75 -4 19 11 25 11 32 0 7
-11 17 -5 45 26 32 37 36 39 48 23 7 -10 16 -18 18 -18 11 0 3 35 -10 43 -7 5
-10 12 -7 18 10 15 21 10 34 -13z m-1055 -3 c11 -8 16 -18 11 -22 -4 -5 -10
-2 -12 5 -3 6 -8 10 -13 7 -4 -3 -10 2 -14 10 -7 19 3 19 28 0z m-36 -26 c-3
-8 -7 -3 -11 10 -4 17 -3 21 5 13 5 -5 8 -16 6 -23z m-588 17 c0 -11 -19 -15
-25 -6 -3 5 1 10 9 10 9 0 16 -2 16 -4z m638 -39 c6 -7 7 -18 3 -26 -7 -11
-11 -9 -20 5 -7 13 -10 14 -11 5 0 -8 -2 -12 -5 -9 -7 7 5 38 15 38 4 0 12 -6
18 -13z m626 -2 c-4 -8 -8 -15 -10 -15 -2 0 -4 7 -4 15 0 8 4 15 10 15 5 0 7
-7 4 -15z m-700 -49 c-3 -9 -10 -13 -15 -10 -5 3 -3 11 4 19 15 16 19 13 11
-9z m2961 14 c-3 -5 -12 -10 -18 -10 -7 0 -6 4 3 10 19 12 23 12 15 0z m-2885
-21 c11 -8 12 -12 3 -16 -9 -3 -10 -10 -3 -24 10 -18 8 -21 -17 -18 -5 0 -7 6
-5 14 1 7 -2 16 -8 20 -14 9 -13 35 3 35 6 0 19 -5 27 -11z m2895 -9 c3 -5 1
-10 -4 -10 -6 0 -11 5 -11 10 0 6 2 10 4 10 3 0 8 -4 11 -10z m-2208 -52 c-3
-8 -6 -5 -6 6 -1 11 2 17 5 13 3 -3 4 -12 1 -19z m-346 -31 c-8 -8 -11 -3 -11
19 1 25 2 27 11 11 8 -14 8 -22 0 -30z m2584 33 c3 -5 1 -10 -4 -10 -6 0 -11
5 -11 10 0 6 2 10 4 10 3 0 8 -4 11 -10z m-2230 -50 c3 -5 -1 -10 -10 -10 -9
0 -13 5 -10 10 3 6 8 10 10 10 2 0 7 -4 10 -10z m745 -25 c0 -9 -6 -12 -15 -9
-8 4 -12 10 -9 15 8 14 24 10 24 -6z m-994 -52 c-10 -10 -19 5 -10 18 6 11 8
11 12 0 2 -7 1 -15 -2 -18z m1158 -5 c4 3 4 -2 0 -12 -5 -14 -4 -17 4 -12 7 4
12 2 12 -4 0 -6 -7 -13 -15 -16 -8 -4 -15 -10 -15 -15 0 -5 7 -9 15 -9 8 0 15
-4 15 -10 0 -13 -11 -12 -32 4 -10 7 -18 23 -18 35 0 16 -6 21 -25 21 -30 0
-32 -11 -5 -35 21 -19 27 -45 10 -45 -5 0 -10 9 -10 20 0 11 -4 20 -9 20 -13
0 -21 27 -15 45 4 9 19 15 38 16 17 0 25 3 19 6 -7 2 -13 10 -13 16 1 7 9 2
19 -10 10 -12 22 -19 25 -15z m-2084 -5 c24 -21 27 -63 5 -63 -8 0 -15 9 -15
20 0 11 -4 20 -10 20 -5 0 -10 9 -10 20 0 24 4 25 30 3z m840 -37 c-26 -27
-37 -13 -15 20 13 21 19 24 26 13 5 -9 2 -21 -11 -33z m200 8 c0 -8 -4 -12
-10 -9 -5 3 -10 13 -10 21 0 8 5 12 10 9 6 -3 10 -13 10 -21z m-114 -40 c-3
-8 -1 -14 3 -14 5 0 11 6 14 13 3 6 4 2 4 -10 -1 -12 -6 -19 -12 -17 -5 3 0
-3 12 -14 16 -14 19 -22 10 -31 -8 -8 -8 -14 1 -23 9 -9 12 -9 12 1 0 7 5 9
10 6 6 -3 10 -2 10 4 0 5 -4 11 -9 13 -5 2 -3 12 5 22 7 11 17 16 21 13 4 -4
2 -12 -4 -18 -6 -6 -9 -18 -6 -26 3 -8 0 -19 -8 -24 -10 -6 -10 -9 -1 -9 6 0
12 -5 12 -10 0 -6 -11 -8 -25 -4 -15 4 -25 2 -25 -5 0 -6 5 -11 12 -11 6 0 9
-3 6 -6 -11 -10 -59 28 -54 42 3 7 1 26 -4 41 -4 15 -10 49 -13 74 -4 46 -4
46 15 27 11 -11 17 -26 14 -34z m2099 16 c3 -5 1 -10 -4 -10 -6 0 -11 5 -11
10 0 6 2 10 4 10 3 0 8 -4 11 -10z m-1964 -50 c-4 -3 -11 -12 -14 -20 -5 -12
-3 22 2 50 1 3 5 -2 11 -10 5 -8 5 -17 1 -20z m-84 1 c0 -11 -5 -17 -9 -15
-11 7 -10 34 1 34 6 0 9 -9 8 -19z m-1367 -4 c13 -11 32 -50 47 -99 6 -20 -36
-41 -62 -32 -18 7 -20 54 -3 54 9 0 9 3 0 12 -8 8 -8 17 -1 30 7 14 7 23 -2
34 -14 17 0 18 21 1z m2450 -1 c0 -3 -4 -8 -10 -11 -5 -3 -10 -1 -10 4 0 6 5
11 10 11 6 0 10 -2 10 -4z m-1035 -46 c3 -5 1 -10 -4 -10 -6 0 -11 5 -11 10 0
6 2 10 4 10 3 0 8 -4 11 -10z m1475 -41 c0 -18 -2 -19 -15 -9 -15 12 -12 30 6
30 5 0 9 -10 9 -21z m-1475 2 c3 -5 1 -12 -5 -16 -5 -3 -10 1 -10 9 0 18 6 21
15 7z m-670 -31 c3 -5 -1 -10 -10 -10 -9 0 -13 5 -10 10 3 6 8 10 10 10 2 0 7
-4 10 -10z m1844 -19 c8 -5 9 -11 3 -15 -5 -3 -15 1 -22 9 -14 16 -3 20 19 6z
m341 -6 c-7 -8 -10 -26 -8 -40 3 -13 1 -22 -3 -19 -5 3 -9 10 -9 15 0 6 -7 18
-16 26 -13 13 -13 17 -2 24 7 5 21 9 32 9 15 0 16 -3 6 -15z m-1730 -15 c0 -5
-2 -10 -4 -10 -3 0 -8 5 -11 10 -3 6 -1 10 4 10 6 0 11 -4 11 -10z m-1190 -30
c0 -5 -5 -10 -11 -10 -5 0 -7 5 -4 10 3 6 8 10 11 10 2 0 4 -4 4 -10z m50 -5
c0 -8 4 -15 9 -15 5 0 12 -7 15 -16 4 -12 0 -15 -17 -12 -12 2 -22 8 -22 13 0
6 -3 15 -7 21 -8 12 -1 24 14 24 4 0 8 -7 8 -15z m-55 -25 c3 -5 1 -10 -4 -10
-6 0 -11 5 -11 10 0 6 2 10 4 10 3 0 8 -4 11 -10z m1229 -6 c9 -3 16 -15 16
-26 0 -11 8 -22 20 -25 22 -6 27 -23 7 -23 -16 0 -51 37 -60 63 -7 19 -6 20
17 11z m-574 -29 c11 -13 10 -14 -4 -9 -10 4 -16 1 -16 -9 0 -8 7 -14 16 -13
9 0 25 -13 35 -30 l17 -32 -24 -5 c-18 -3 -24 -1 -20 9 3 8 -1 14 -9 14 -16 0
-26 31 -23 68 3 26 11 28 28 7z m795 6 c7 -12 -12 -24 -25 -16 -11 7 -4 25 10
25 5 0 11 -4 15 -9z m-31 -37 c5 -14 4 -15 -9 -4 -17 14 -19 20 -6 20 5 0 12
-7 15 -16z m-101 -37 c-5 -8 49 -62 70 -70 6 -3 2 -6 -10 -6 -13 -1 -24 7 -28
19 -3 11 -12 20 -20 20 -15 0 -38 57 -28 73 7 12 23 -23 16 -36z m1118 16
c-12 -20 -14 -14 -5 12 4 9 9 14 11 11 3 -2 0 -13 -6 -23z m-1444 -62 c14 -8
15 -10 3 -11 -21 0 -52 38 -44 52 5 7 10 4 15 -9 4 -12 16 -26 26 -32z m1077
-66 c-7 -16 -24 -21 -24 -6 0 8 7 13 27 20 1 1 0 -6 -3 -14z m-574 -15 c0 -5
-4 -10 -10 -10 -5 0 -10 5 -10 10 0 6 5 10 10 10 6 0 10 -4 10 -10z m-493 -30
c9 0 13 6 9 15 -3 9 0 15 9 15 8 0 15 -6 15 -14 0 -8 8 -17 18 -20 19 -6 46
-60 44 -87 -1 -9 8 -25 18 -34 22 -20 27 -45 8 -45 -6 0 -3 -7 8 -16 19 -15
18 -15 -4 -11 -12 3 -20 1 -16 -4 9 -15 -10 -10 -36 11 -22 17 -23 22 -12 40
13 21 2 60 -18 60 -6 0 -10 7 -10 16 0 10 6 14 15 10 18 -7 18 -4 3 29 -8 19
-17 25 -31 21 -29 -7 -47 4 -46 28 1 16 2 17 6 4 2 -10 11 -18 20 -18z m913
20 c12 -8 9 -10 -12 -10 -16 0 -28 5 -28 10 0 13 20 13 40 0z m130 -52 c-14
-14 -25 -17 -32 -10 -6 6 -2 15 13 25 31 22 46 10 19 -15z m-385 2 c3 -4 -2
-13 -10 -20 -12 -10 -15 -10 -15 0 0 8 -3 10 -6 7 -4 -3 -16 -1 -28 5 -20 11
-20 11 -1 18 21 7 52 2 60 -10z m125 4 c0 -10 -6 -14 -15 -10 -10 3 -15 -1
-15 -12 0 -14 -7 -18 -30 -16 -16 1 -30 -1 -30 -5 0 -4 -7 -8 -15 -8 -11 0
-12 4 -4 14 6 7 25 13 41 13 22 0 29 4 25 14 -5 13 5 20 36 25 4 0 7 -6 7 -15z
m-743 -17 c-6 -20 -27 -19 -27 2 0 14 5 19 15 14 9 -3 14 -10 12 -16z m398 3
c-3 -5 -11 -10 -16 -10 -6 0 -7 5 -4 10 3 6 11 10 16 10 6 0 7 -4 4 -10z m78
-37 c-3 -8 -12 -12 -20 -9 -8 3 -17 6 -19 6 -2 0 -4 9 -4 20 0 17 3 18 24 9
15 -7 22 -17 19 -26z m331 26 c-4 -8 -1 -8 12 -2 11 6 30 7 44 3 24 -7 24 -8
-15 -25 -27 -11 -41 -13 -43 -6 -2 6 -8 9 -13 6 -5 -4 -17 -1 -26 4 -17 10
-16 10 2 11 17 0 17 2 5 10 -12 8 -9 10 13 10 18 0 26 -4 21 -11z m-838 -56
c-3 -8 -1 -11 4 -8 6 3 10 1 10 -4 0 -6 -6 -11 -12 -12 -10 0 -10 -2 0 -6 6
-2 12 -10 12 -15 0 -6 -3 -8 -7 -5 -3 4 -13 1 -21 -6 -9 -7 -13 -7 -9 -1 9 15
-15 64 -30 64 -11 0 -12 14 -4 48 1 2 15 -6 32 -18 18 -14 28 -28 25 -37z
m404 17 c0 -5 -4 -10 -10 -10 -5 0 -10 5 -10 10 0 6 5 10 10 10 6 0 10 -4 10
-10z m80 -10 c0 -5 -4 -10 -10 -10 -5 0 -10 5 -10 10 0 6 5 10 10 10 6 0 10
-4 10 -10z m760 0 c0 -5 -2 -10 -4 -10 -3 0 -8 5 -11 10 -3 6 -1 10 4 10 6 0
11 -4 11 -10z m-620 -15 c8 -5 20 -10 25 -11 34 -4 36 -7 8 -13 -26 -5 -31 -9
-23 -21 8 -13 13 -13 30 -2 20 12 20 11 10 -8 -6 -11 -15 -20 -21 -20 -31 0
-108 64 -95 78 4 3 12 -3 20 -13 9 -12 15 -15 20 -7 4 7 2 12 -3 12 -6 0 -11
4 -11 9 0 11 19 9 40 -4z m404 0 c3 -8 1 -15 -4 -15 -6 0 -10 7 -10 15 0 8 2
15 4 15 2 0 6 -7 10 -15z m-304 -4 c0 -5 11 -8 25 -8 14 0 25 4 25 10 0 7 4 7
12 -1 18 -18 -10 -45 -40 -37 -15 4 -21 2 -17 -5 9 -15 -4 -12 -21 5 -12 12
-12 15 -2 16 10 0 10 2 1 6 -18 7 -16 23 2 23 8 0 15 -4 15 -9z m450 -17 c0
-16 -16 -19 -25 -4 -8 13 4 32 16 25 5 -4 9 -13 9 -21z m50 16 c0 -5 -2 -10
-4 -10 -3 0 -8 5 -11 10 -3 6 -1 10 4 10 6 0 11 -4 11 -10z m-940 -24 c0 -3
-4 -8 -10 -11 -5 -3 -10 -1 -10 4 0 6 5 11 10 11 6 0 10 -2 10 -4z m854 -5 c9
-15 -4 -39 -23 -44 -14 -3 -17 0 -14 14 3 11 10 19 15 19 5 0 6 5 3 10 -3 6
-2 10 4 10 5 0 12 -4 15 -9z m-217 -7 c-3 -3 -12 -4 -19 -1 -8 3 -5 6 6 6 11
1 17 -2 13 -5z m-534 -15 c-8 -8 -16 -8 -30 0 -16 9 -14 10 12 11 21 0 26 -3
18 -11z m807 1 c0 -5 -5 -10 -11 -10 -5 0 -7 5 -4 10 3 6 8 10 11 10 2 0 4 -4
4 -10z m-1168 -15 c0 -5 -5 -11 -11 -13 -6 -2 -11 4 -11 13 0 9 5 15 11 13 6
-2 11 -8 11 -13z m172 -22 c3 -7 -2 -20 -11 -29 -16 -15 -17 -15 -23 2 -6 17
-7 17 -14 -1 -5 -13 -10 -15 -18 -7 -6 6 -7 18 -3 29 5 10 9 21 10 26 2 4 3 9
4 11 2 8 51 -19 55 -31z m126 33 c0 -3 -4 -8 -10 -11 -5 -3 -10 -1 -10 4 0 6
5 11 10 11 6 0 10 -2 10 -4z m360 -33 c-1 -20 -20 -35 -48 -37 -22 -1 -30 2
-29 13 0 10 12 17 29 18 20 2 27 -2 23 -10 -3 -7 0 -4 7 6 14 19 18 21 18 10z
m47 -19 c-2 -2 -12 -1 -22 3 -18 6 -18 7 1 13 17 7 33 -5 21 -16z m-331 1 c-4
-11 3 -19 19 -25 33 -13 32 -25 -2 -25 -45 0 -56 12 -36 40 21 28 28 32 19 10z
m398 0 c8 -8 17 -15 20 -15 3 0 3 7 0 15 -4 8 -1 15 5 15 6 0 11 -5 11 -11 0
-5 6 -7 13 -3 6 4 9 4 5 -1 -4 -4 -2 -15 5 -24 11 -14 10 -14 -6 -2 -12 10
-21 11 -28 4 -16 -16 -49 -4 -42 15 5 11 2 14 -10 9 -9 -3 -19 -2 -22 3 -10
16 32 11 49 -5z m427 2 c-1 -4 -1 -14 -1 -22 0 -8 -4 -15 -10 -15 -5 0 -10 12
-10 26 0 14 5 24 11 22 6 -2 10 -7 10 -11z m-694 -27 c13 0 13 -3 3 -15 -7 -8
-27 -15 -44 -14 -17 0 -25 3 -18 6 6 2 12 12 12 20 0 10 6 13 16 9 9 -3 23 -6
31 -6z m663 -6 c0 -9 -7 -14 -17 -12 -10 1 -24 -1 -30 -5 -7 -5 -13 -4 -13 2
0 11 29 30 48 31 6 0 12 -7 12 -16z m-870 -25 c0 -6 -4 -7 -10 -4 -5 3 -10 11
-10 16 0 6 5 7 10 4 6 -3 10 -11 10 -16z m572 6 c0 -13 -29 -31 -38 -23 -7 8
18 38 29 35 5 -1 9 -7 9 -12z m-674 -23 c6 -18 -15 -14 -22 4 -4 10 -1 14 6
12 6 -2 14 -10 16 -16z m429 12 c-3 -3 -12 -4 -19 -1 -8 3 -5 6 6 6 11 1 17
-2 13 -5z m-586 -41 c21 -12 29 -25 28 -43 -1 -14 -3 -18 -5 -10 -3 8 -18 23
-34 32 -17 9 -30 22 -30 28 0 14 7 13 41 -7z m79 5 c0 -10 3 -9 9 1 10 15 61
8 61 -9 0 -14 -78 -52 -84 -41 -4 5 -3 16 0 25 3 9 1 16 -6 16 -6 0 -8 5 -5
10 9 14 25 12 25 -2z m410 -75 c0 -14 -19 -38 -25 -32 -8 8 5 39 16 39 5 0 9
-3 9 -7z m-86 -39 c10 -25 -1 -29 -14 -5 -6 12 -7 21 -1 21 5 0 12 -7 15 -16z
m417 -37 c-8 -8 -11 -7 -11 4 0 9 3 19 7 23 4 4 9 2 11 -4 3 -7 -1 -17 -7 -23z
m-201 3 c0 -5 -4 -10 -9 -10 -6 0 -13 5 -16 10 -3 6 1 10 9 10 9 0 16 -4 16
-10z m25 -20 c-3 -5 -11 -10 -16 -10 -6 0 -7 5 -4 10 3 6 11 10 16 10 6 0 7
-4 4 -10z m-1260 -28 c0 -18 -20 -15 -23 4 -3 10 1 15 10 12 7 -3 13 -10 13
-16z m195 -82 c0 -5 -4 -10 -10 -10 -5 0 -10 5 -10 10 0 6 5 10 10 10 6 0 10
-4 10 -10z m237 -207 c-4 -3 1 -12 11 -20 15 -13 15 -13 -5 -3 -13 6 -23 8
-23 5 0 -4 -5 -3 -10 0 -14 9 -3 25 17 25 9 0 13 -3 10 -7z m1347 -151 c3 -5
-1 -9 -9 -9 -8 0 -12 4 -9 9 3 4 7 8 9 8 2 0 6 -4 9 -8z m11 -32 c3 -5 2 -10
-4 -10 -5 0 -13 5 -16 10 -3 6 -2 10 4 10 5 0 13 -4 16 -10z m-800 -189 c3 -5
-3 -12 -12 -14 -14 -4 -12 -5 5 -6 19 -1 21 -4 13 -18 -5 -10 -21 -18 -35 -18
-13 -1 -23 2 -21 5 2 3 0 12 -5 20 -6 9 -3 18 8 27 20 15 39 16 47 4z m515
-81 c0 -5 -4 -10 -10 -10 -5 0 -10 5 -10 10 0 6 5 10 10 10 6 0 10 -4 10 -10z"/>
<path d="M2120 2819 c0 -5 5 -7 10 -4 6 3 10 8 10 11 0 2 -4 4 -10 4 -5 0 -10
-5 -10 -11z"/>
<path d="M2241 2684 c-1 -6 -15 -17 -32 -24 -20 -9 -26 -15 -18 -21 7 -4 18
-1 25 6 8 7 19 15 25 17 7 2 9 11 6 19 -3 7 -6 9 -6 3z"/>
<path d="M2265 2680 c-3 -5 -1 -10 4 -10 6 0 11 5 11 10 0 6 -2 10 -4 10 -3 0
-8 -4 -11 -10z"/>
<path d="M2040 2620 c0 -5 5 -10 10 -10 6 0 10 5 10 10 0 6 -4 10 -10 10 -5 0
-10 -4 -10 -10z"/>
<path d="M2592 2558 c6 -18 28 -21 28 -4 0 9 -7 16 -16 16 -9 0 -14 -5 -12
-12z"/>
<path d="M1991 2454 c0 -11 3 -14 6 -6 3 7 2 16 -1 19 -3 4 -6 -2 -5 -13z"/>
<path d="M2670 2440 c0 -5 5 -10 10 -10 6 0 10 5 10 10 0 6 -4 10 -10 10 -5 0
-10 -4 -10 -10z"/>
<path d="M2710 2380 c-9 -6 -10 -10 -3 -10 6 0 15 5 18 10 8 12 4 12 -15 0z"/>
<path d="M1936 2351 c-4 -7 -5 -15 -2 -18 9 -9 19 4 14 18 -4 11 -6 11 -12 0z"/>
<path d="M1910 2323 c0 -12 5 -25 10 -28 13 -8 13 15 0 35 -8 12 -10 11 -10
-7z"/>
<path d="M1952 2235 c2 -22 -1 -29 -11 -27 -12 3 -12 0 -2 -12 26 -31 48 17
24 50 -13 18 -14 17 -11 -11z"/>
<path d="M2650 2224 c0 -8 5 -12 10 -9 6 3 10 10 10 16 0 5 -4 9 -10 9 -5 0
-10 -7 -10 -16z"/>
<path d="M2629 2202 c7 -5 10 -15 7 -21 -4 -6 -2 -11 4 -11 17 0 8 33 -10 37
-12 4 -13 3 -1 -5z"/>
<path d="M1840 2161 c0 -10 19 -25 25 -20 1 2 -3 10 -11 17 -8 7 -14 8 -14 3z"/>
<path d="M2581 2144 c0 -11 3 -14 6 -6 3 7 2 16 -1 19 -3 4 -6 -2 -5 -13z"/>
<path d="M2620 2139 c0 -5 -4 -7 -10 -4 -5 3 -10 -1 -10 -10 0 -11 -5 -15 -16
-11 -8 3 -12 2 -9 -4 6 -10 -16 -34 -53 -60 -28 -18 -28 -45 -2 -47 11 -1 20
2 20 8 0 5 -4 9 -10 9 -5 0 -10 5 -10 10 0 18 18 11 25 -10 5 -15 12 -18 38
-14 l32 5 -27 -16 c-16 -8 -28 -21 -27 -28 0 -9 2 -9 6 1 2 6 16 12 30 12 21
0 24 4 20 22 -4 12 -1 28 4 35 19 23 6 34 -23 18 -16 -7 -28 -11 -28 -7 0 15
37 39 58 37 18 -1 19 1 11 17 -6 11 -8 26 -5 34 3 8 1 14 -4 14 -6 0 -10 -5
-10 -11z"/>
<path d="M1980 2129 c0 -8 5 -21 10 -29 8 -12 9 -10 7 7 -4 26 -17 43 -17 22z"/>
<path d="M2388 2099 c-15 -16 -22 -29 -14 -29 11 0 56 44 56 55 0 12 -17 1
-42 -26z"/>
<path d="M2646 2121 c-4 -5 -2 -12 3 -15 5 -4 12 -2 15 3 4 5 2 12 -3 15 -5 4
-12 2 -15 -3z"/>
<path d="M2116 2063 c-7 -18 15 -38 24 -23 3 6 34 8 68 5 34 -3 62 -3 62 0 0
25 -59 40 -85 23 -6 -4 -17 -3 -25 3 -22 13 -37 11 -44 -8z"/>
<path d="M1960 2041 c0 -11 31 -24 39 -16 3 3 -1 10 -9 15 -19 12 -30 12 -30
1z"/>
<path d="M2230 2020 c0 -5 5 -10 11 -10 5 0 7 5 4 10 -3 6 -8 10 -11 10 -2 0
-4 -4 -4 -10z"/>
<path d="M1949 1998 c-5 -9 -19 -19 -31 -21 -16 -3 -13 -5 12 -6 19 -2 43 -4
53 -6 12 -2 17 1 14 9 -3 7 -1 19 5 27 8 11 9 10 4 -3 -3 -10 0 -18 6 -18 6 0
3 -10 -8 -22 -10 -12 -13 -18 -6 -14 6 4 12 2 12 -3 0 -16 36 -13 50 4 10 12
9 15 -4 15 -10 0 -14 5 -11 10 3 6 2 10 -4 10 -5 0 -12 8 -16 19 -7 24 -63 23
-76 -1z m12 -11 c-10 -9 -11 -8 -5 6 3 10 9 15 12 12 3 -3 0 -11 -7 -18z"/>
<path d="M2325 2000 c4 -6 11 -8 16 -5 14 9 11 15 -7 15 -8 0 -12 -5 -9 -10z"/>
<path d="M2440 1989 c0 -5 5 -7 10 -4 6 3 10 8 10 11 0 2 -4 4 -10 4 -5 0 -10
-5 -10 -11z"/>
<path d="M2685 1990 c-3 -5 1 -10 9 -10 9 0 16 5 16 10 0 6 -4 10 -9 10 -6 0
-13 -4 -16 -10z"/>
<path d="M2100 1969 c0 -5 5 -7 10 -4 6 3 10 8 10 11 0 2 -4 4 -10 4 -5 0 -10
-5 -10 -11z"/>
<path d="M2135 1970 c-3 -5 -2 -10 4 -10 5 0 13 5 16 10 3 6 2 10 -4 10 -5 0
-13 -4 -16 -10z"/>
<path d="M2298 1973 c7 -3 16 -2 19 1 4 3 -2 6 -13 5 -11 0 -14 -3 -6 -6z"/>
<path d="M1550 1541 c0 -6 5 -13 10 -16 6 -3 10 1 10 9 0 9 -4 16 -10 16 -5 0
-10 -4 -10 -9z"/>
</g>
</svg>
